<?xml version="1.0" standalone="no"?>
<!DOCTYPE svg PUBLIC "-//W3C//DTD SVG 20010904//EN"
 "http://www.w3.org/TR/2001/REC-SVG-20010904/DTD/svg10.dtd">
<svg version="1.0" xmlns="http://www.w3.org/2000/svg"
 width="1000.000000pt" height="1000.000000pt" viewBox="0 0 1000.000000 1000.000000"
 preserveAspectRatio="xMidYMid meet">
<metadata>
Created by potrace 1.14, written by Peter Selinger 2001-2017
</metadata>
<g transform="translate(0.000000,1000.000000) scale(0.100000,-0.100000)"
fill="#000000" stroke="none">
<path d="M4772 9159 c-443 -23 -884 -118 -1297 -280 -504 -197 -977 -501
-1366 -876 -709 -685 -1133 -1539 -1256 -2533 -25 -206 -25 -734 0 -940 123
-994 547 -1848 1256 -2533 1039 -1003 2534 -1393 3941 -1027 1587 414 2791
1739 3054 3360 40 246 50 386 50 670 0 284 -10 424 -50 670 -340 2095 -2207
3600 -4332 3489z m428 -329 c840 -52 1575 -338 2225 -864 128 -104 411 -384
511 -506 453 -551 734 -1166 843 -1845 37 -230 45 -338 45 -615 0 -277 -8
-385 -45 -615 -109 -679 -390 -1294 -843 -1845 -100 -122 -383 -402 -511 -506
-507 -411 -1061 -672 -1695 -798 -814 -163 -1689 -46 -2432 324 -777 387
-1391 1008 -1762 1782 -254 527 -376 1068 -376 1658 0 591 122 1130 376 1658
534 1116 1591 1916 2799 2121 316 53 576 69 865 51z"/>
<path d="M4760 8724 c-272 -23 -472 -55 -692 -110 -1207 -304 -2204 -1225
-2605 -2409 -266 -783 -266 -1627 0 -2410 281 -829 859 -1543 1617 -1997 459
-276 962 -444 1525 -510 145 -17 636 -17 775 0 885 109 1612 451 2217 1045
315 309 532 604 723 982 273 540 399 1072 400 1686 0 608 -127 1145 -400 1684
-191 378 -408 673 -723 982 -595 583 -1311 926 -2170 1039 -106 14 -570 26
-667 18z m585 -139 c757 -78 1441 -373 2010 -867 1241 -1078 1596 -2861 860
-4328 -699 -1392 -2198 -2176 -3741 -1955 -1203 173 -2252 961 -2758 2071
-165 362 -247 663 -308 1124 -16 125 -16 615 0 740 61 461 143 762 308 1124
510 1121 1577 1913 2794 2076 243 33 603 39 835 15z"/>
<path d="M4675 8249 c-565 -66 -1024 -227 -1460 -513 -771 -506 -1287 -1291
-1440 -2191 -33 -198 -39 -279 -39 -545 0 -266 6 -347 39 -545 93 -549 332
-1079 678 -1504 488 -598 1150 -1000 1892 -1149 229 -46 389 -62 645 -62 544
0 1008 111 1490 356 495 251 933 645 1245 1119 467 711 637 1590 469 2425
-124 618 -419 1177 -859 1628 -267 275 -534 474 -855 636 -375 191 -720 293
-1145 341 -140 16 -539 18 -660 4z m563 -859 c729 -78 1367 -470 1774 -1090
191 -291 327 -672 369 -1035 15 -128 15 -402 0 -530 -91 -782 -555 -1471
-1243 -1846 -360 -195 -733 -289 -1150 -289 -787 1 -1511 380 -1966 1029 -216
309 -355 668 -413 1066 -17 118 -17 492 0 610 70 481 251 888 559 1256 373
445 942 751 1532 824 131 16 409 18 538 5z"/>
</g>
</svg>
