<?xml version="1.0" standalone="no"?>
<!DOCTYPE svg PUBLIC "-//W3C//DTD SVG 20010904//EN"
 "http://www.w3.org/TR/2001/REC-SVG-20010904/DTD/svg10.dtd">
<svg version="1.0" xmlns="http://www.w3.org/2000/svg"
 width="1500.000000pt" height="1500.000000pt" viewBox="0 0 1500.000000 1500.000000"
 preserveAspectRatio="xMidYMid meet">
<metadata>
Created by potrace 1.14, written by Peter Selinger 2001-2017
</metadata>
<g transform="translate(0.000000,1500.000000) scale(0.100000,-0.100000)"
fill="#000000" stroke="none">
<path d="M7200 13744 c-505 -34 -835 -83 -1235 -183 -1131 -284 -2126 -859
-2955 -1707 -732 -750 -1246 -1642 -1544 -2682 l-15 -52 260 2 260 3 63 190
c161 483 364 903 644 1330 1064 1626 2872 2605 4812 2605 1525 0 2985 -605
4065 -1685 637 -637 1108 -1399 1391 -2250 l63 -190 260 -3 260 -2 -15 52
c-298 1040 -812 1932 -1544 2682 -1075 1100 -2427 1738 -3975 1876 -121 11
-693 21 -795 14z"/>
<path d="M7150 12389 c-812 -56 -1617 -323 -2297 -760 -302 -194 -527 -374
-791 -633 -500 -490 -872 -1048 -1126 -1689 -36 -91 -66 -170 -66 -176 0 -8
287 -11 989 -11 l989 0 42 68 c23 37 80 117 126 177 463 612 1125 1027 1874
1175 224 44 344 55 600 55 256 0 376 -11 600 -55 749 -148 1411 -563 1874
-1175 46 -60 103 -140 126 -177 l42 -68 989 0 c702 0 989 3 989 11 0 22 -134
347 -199 483 -352 735 -896 1384 -1568 1869 -912 659 -2059 984 -3193 906z"/>
<path d="M603 8945 c-165 -36 -293 -165 -328 -332 -22 -101 -22 -2125 0 -2226
36 -169 163 -296 332 -332 103 -22 13673 -22 13776 0 169 36 296 163 332 332
22 101 22 2125 0 2226 -36 169 -163 296 -332 332 -99 21 -13684 21 -13780 0z"/>
<path d="M1466 5828 c315 -1100 860 -2017 1670 -2808 968 -946 2227 -1553
3564 -1719 305 -38 431 -45 790 -45 359 0 485 7 790 45 1337 166 2596 773
3564 1719 810 791 1355 1708 1670 2808 l15 52 -260 -2 -260 -3 -63 -190 c-283
-851 -754 -1613 -1391 -2250 -1339 -1338 -3242 -1931 -5105 -1590 -1146 210
-2197 763 -3025 1590 -637 637 -1108 1399 -1391 2250 l-63 190 -260 3 -260 2
15 -52z"/>
<path d="M2870 5869 c0 -22 134 -347 199 -483 391 -816 1014 -1520 1784 -2015
1597 -1026 3677 -1026 5274 0 302 194 527 374 791 633 500 490 872 1048 1126
1689 36 91 66 170 66 176 0 8 -287 11 -989 11 l-989 0 -42 -67 c-117 -188
-338 -447 -515 -606 -495 -443 -1081 -709 -1740 -788 -143 -18 -547 -18 -690
0 -858 103 -1614 535 -2129 1216 -46 61 -103 140 -126 178 l-42 67 -989 0
c-702 0 -989 -3 -989 -11z"/>
</g>
</svg>
