<?xml version="1.0" standalone="no"?>
<!DOCTYPE svg PUBLIC "-//W3C//DTD SVG 20010904//EN"
 "http://www.w3.org/TR/2001/REC-SVG-20010904/DTD/svg10.dtd">
<svg version="1.0" xmlns="http://www.w3.org/2000/svg"
 width="500.000000pt" height="500.000000pt" viewBox="0 0 500.000000 500.000000"
 preserveAspectRatio="xMidYMid meet">
<metadata>
Created by potrace 1.14, written by Peter Selinger 2001-2017
</metadata>
<g transform="translate(0.000000,500.000000) scale(0.100000,-0.100000)"
fill="#000000" stroke="none">
<path d="M2270 4569 c-227 -26 -482 -100 -685 -199 -625 -306 -1053 -897
-1149 -1588 -21 -147 -21 -417 0 -564 181 -1297 1495 -2108 2733 -1687 737
251 1268 891 1387 1670 24 155 24 443 0 598 -143 940 -877 1653 -1816 1766
-126 16 -352 17 -470 4z m411 -159 c460 -47 864 -242 1184 -571 165 -170 248
-286 350 -488 297 -593 258 -1322 -102 -1884 -152 -237 -387 -466 -635 -615
-544 -329 -1231 -359 -1807 -82 -560 271 -947 775 -1063 1387 -19 100 -23 151
-23 343 0 192 4 243 23 343 41 217 126 444 234 627 380 644 1104 1014 1839
940z"/>
<path d="M2330 4123 c-19 -2 -83 -13 -143 -24 -640 -119 -1146 -619 -1289
-1273 -19 -87 -22 -131 -22 -326 0 -195 3 -239 22 -326 162 -744 781 -1270
1532 -1301 725 -30 1383 421 1610 1106 117 351 117 691 0 1042 -221 665 -853
1115 -1555 1107 -66 -1 -136 -3 -155 -5z m367 -608 c387 -75 697 -369 805
-763 31 -112 31 -392 0 -504 -83 -304 -281 -544 -557 -678 -443 -216 -975 -87
-1276 309 -69 91 -144 247 -176 366 -23 88 -26 119 -26 255 0 136 3 167 26
255 143 535 664 864 1204 760z"/>
</g>
</svg>
